<svg width="28" height="28" viewBox="0 0 28 28" fill="currentColor" xmlns="http://www.w3.org/2000/svg">
<g clip-path="url(#clip0_16_454)">
<path d="M7.46659 10.7333H7.69992C8.59825 10.7333 9.33325 11.4683 9.33325 12.3666V20.5333C9.33325 21.4316 8.59825 22.1666 7.69992 22.1666H7.46659C6.56825 22.1666 5.83325 21.4316 5.83325 20.5333V12.3666C5.83325 11.4683 6.56825 10.7333 7.46659 10.7333V10.7333ZM13.9999 5.83331C14.8983 5.83331 15.6333 6.56831 15.6333 7.46665V20.5333C15.6333 21.4316 14.8983 22.1666 13.9999 22.1666C13.1016 22.1666 12.3666 21.4316 12.3666 20.5333V7.46665C12.3666 6.56831 13.1016 5.83331 13.9999 5.83331ZM20.5333 15.1666C21.4316 15.1666 22.1666 15.9016 22.1666 16.8V20.5333C22.1666 21.4316 21.4316 22.1666 20.5333 22.1666C19.6349 22.1666 18.8999 21.4316 18.8999 20.5333V16.8C18.8999 15.9016 19.6349 15.1666 20.5333 15.1666V15.1666Z" fill="currentColor"/>
</g>
<defs>
<clipPath id="clip0_16_454">
<rect width="28" height="28" fill="white"/>
</clipPath>
</defs>
</svg>
