<svg width="20" height="20" viewBox="0 0 20 20" fill="none" xmlns="http://www.w3.org/2000/svg">
<path d="M6.66659 9.99998C6.66659 10.442 6.49099 10.8659 6.17843 11.1785C5.86587 11.4911 5.44195 11.6666 4.99992 11.6666C4.55789 11.6666 4.13397 11.4911 3.82141 11.1785C3.50885 10.8659 3.33325 10.442 3.33325 9.99998C3.33325 9.55795 3.50885 9.13403 3.82141 8.82147C4.13397 8.50891 4.55789 8.33331 4.99992 8.33331C5.44195 8.33331 5.86587 8.50891 6.17843 8.82147C6.49099 9.13403 6.66659 9.55795 6.66659 9.99998ZM11.6666 9.99998C11.6666 10.442 11.491 10.8659 11.1784 11.1785C10.8659 11.4911 10.4419 11.6666 9.99992 11.6666C9.55789 11.6666 9.13397 11.4911 8.82141 11.1785C8.50885 10.8659 8.33325 10.442 8.33325 9.99998C8.33325 9.55795 8.50885 9.13403 8.82141 8.82147C9.13397 8.50891 9.55789 8.33331 9.99992 8.33331C10.4419 8.33331 10.8659 8.50891 11.1784 8.82147C11.491 9.13403 11.6666 9.55795 11.6666 9.99998ZM14.9999 11.6666C15.4419 11.6666 15.8659 11.4911 16.1784 11.1785C16.491 10.8659 16.6666 10.442 16.6666 9.99998C16.6666 9.55795 16.491 9.13403 16.1784 8.82147C15.8659 8.50891 15.4419 8.33331 14.9999 8.33331C14.5579 8.33331 14.134 8.50891 13.8214 8.82147C13.5088 9.13403 13.3333 9.55795 13.3333 9.99998C13.3333 10.442 13.5088 10.8659 13.8214 11.1785C14.134 11.4911 14.5579 11.6666 14.9999 11.6666Z" fill="#737373"/>
</svg>
