<svg width="24" height="24" viewBox="0 0 24 24" fill="none" xmlns="http://www.w3.org/2000/svg">
<path fill-rule="evenodd" clip-rule="evenodd" d="M20.0505 10.3394C20.7163 10.3507 21.3246 10.6693 21.7237 11.2247C22.1295 11.7903 22.2512 12.5011 22.0562 13.1765L20.7796 18.4585C20.2363 20.3369 18.633 21.5736 16.7781 21.5736H6.31367C5.83619 21.5736 5.38455 21.4726 4.95707 21.3188L7.30528 12.8181C7.7211 11.3628 9.0352 10.3463 10.5001 10.3463H20.0155C20.0217 10.3463 20.0273 10.3446 20.033 10.3429C20.0386 10.3412 20.0442 10.3394 20.0505 10.3394Z" fill="#009276"/>
<path d="M2.14722 17.2554V6.02815C2.14722 4.12297 3.64214 2.57361 5.48038 2.57361H7.14696C7.53361 2.57361 7.92025 2.66774 8.26523 2.84652L10.8943 4.20934C11.0093 4.26893 11.1384 4.30002 11.2667 4.30002H15.4799C17.7772 4.30002 19.6463 6.23715 19.6463 8.6182H10.5001C8.3019 8.6182 6.33117 10.1434 5.70537 12.3344L3.47798 20.3999C2.66386 19.6114 2.14722 18.4982 2.14722 17.2554Z" fill="#38F4D1"/>
</svg>
