<svg width="50" height="50" viewBox="0 0 50 50" fill="none" xmlns="http://www.w3.org/2000/svg">
<path d="M20.5957 2.51953C18.1934 3.89648 13.3301 6.69922 9.78516 8.74023L3.33008 12.4512L3.32031 19.6777C3.32031 23.6523 3.34961 29.2969 3.38867 32.2266L3.44727 37.5488L6.48437 39.2969C8.1543 40.2637 12.7344 42.9004 16.6504 45.166C20.5762 47.4316 24.0625 49.4434 24.4141 49.6387L25.0488 49.9902L33.1543 45.3027C37.6172 42.7246 42.4805 39.9121 43.9746 39.043L46.6797 37.4609L46.6602 24.9609L46.6309 12.4609L45.3125 11.6895C40.1855 8.6914 25.3125 0.136714 25.0977 0.058589C25.0195 0.0390577 22.9883 1.14258 20.5957 2.51953ZM30.791 5.75195C33.8672 7.51953 38.2031 10.0195 40.4297 11.3086L44.4824 13.6426L44.5508 24.9121C44.5996 33.5937 44.5898 36.2109 44.502 36.2891C44.3262 36.4551 25.1953 47.4805 25.0684 47.5C25 47.5 20.5664 44.9805 15.2148 41.8945L5.47852 36.2793L5.49805 24.9609L5.51758 13.6426L10.8398 10.5664C22.002 4.12109 24.9512 2.4414 25.0781 2.49023C25.1465 2.51953 27.7148 3.98437 30.791 5.75195Z" fill="#108A4A"/>
<path d="M20.7031 15.0391V20.4102H15.3809H10.0586V25.2441V30.0781H13.3496H16.6406L23.4863 24.9316C27.2461 22.1094 30.332 19.7852 30.332 19.7852C30.3418 19.7754 30.3809 17.5 30.4102 14.7168L30.4883 9.66797H25.5957H20.7031V15.0391Z" fill="#108A4A"/>
<path d="M33.1543 20.5176C33.2129 20.6055 36.4844 23.0664 40.1855 25.8008L41.0644 26.4551L41.1328 25.9473C41.1621 25.6641 41.1914 24.3066 41.2012 22.9199L41.2109 20.4102H37.1484C34.2676 20.4102 33.1152 20.4395 33.1543 20.5176Z" fill="#108A4A"/>
<path d="M30.0098 21.5039C28.8965 22.3047 25.8105 24.5703 20.3418 28.6133C19.3652 29.3359 18.5547 29.9609 18.5547 30C18.5547 30.0488 19.0625 30.0781 19.6777 30.0781H20.8008V35.4492V40.8203H25.6348H30.4688V35.4492V30.0781H35.791H41.1133V28.9258V27.7832L40.1074 27.041C39.5605 26.6406 37.3926 25.0195 35.2832 23.457C33.1836 21.8848 31.416 20.6055 31.3574 20.6055C31.3086 20.6055 30.7031 21.0059 30.0098 21.5039ZM30.2734 24.502C30.7617 24.6875 30.7812 24.6875 31.1816 24.502C32.6074 23.8574 34.3555 24.9902 34.375 26.5625C34.375 27.4023 33.8184 28.2813 33.0664 28.6231C32.5684 28.8477 31.6797 28.8574 31.1523 28.6523C30.7812 28.5059 30.7227 28.5059 30.3418 28.6523C29.8047 28.8574 28.8867 28.8574 28.4863 28.6523C28.0859 28.4473 27.5586 27.959 27.3828 27.6172C27.1875 27.2363 27.1094 26.3574 27.2363 25.9473C27.4316 25.3613 27.8711 24.8535 28.4277 24.5703C29.0527 24.2676 29.5898 24.2481 30.2734 24.502Z" fill="#47B14B"/>
<path d="M28.7304 25.166C27.7441 25.6445 27.5488 26.9531 28.3496 27.7344C28.75 28.125 29.2578 28.2617 29.8242 28.1152L30.2539 28.0078L30.0683 27.5684C29.8242 27.002 29.8242 26.1523 30.0683 25.6152L30.2539 25.2051L29.9609 25.1074C29.5312 24.9609 29.1015 24.9805 28.7304 25.166Z" fill="#47B14B"/>
<path d="M31.4941 25.127C31.3086 25.2734 31.3086 25.2832 31.4746 25.625C31.709 26.123 31.6992 27.0508 31.4453 27.5488L31.2402 27.9395L31.5918 28.0859C32.4121 28.4277 33.5059 27.7637 33.6621 26.8262C33.7402 26.3281 33.4668 25.6445 33.0566 25.332C32.6465 25.0195 31.7871 24.9121 31.4941 25.127Z" fill="#47B14B"/>
<path d="M30.625 25.9961C30.5469 26.2988 30.5664 27.0605 30.6543 27.2949C30.7324 27.4805 30.7324 27.4805 30.8398 27.2754C30.9668 27.0508 30.9961 26.2012 30.8984 25.9375C30.8105 25.7129 30.6934 25.7422 30.625 25.9961Z" fill="#47B14B"/>
</svg>
