<svg width="33" height="33" viewBox="0 0 33 33" fill="none" xmlns="http://www.w3.org/2000/svg">
<g clip-path="url(#clip0_16_460)">
<path d="M8.75756 12.5893H9.03124C10.0849 12.5893 10.947 13.4514 10.947 14.5051V24.0839C10.947 25.1376 10.0849 25.9997 9.03124 25.9997H8.75756C7.70389 25.9997 6.8418 25.1376 6.8418 24.0839V14.5051C6.8418 13.4514 7.70389 12.5893 8.75756 12.5893V12.5893ZM16.4206 6.84204C17.4743 6.84204 18.3364 7.70413 18.3364 8.75781V24.0839C18.3364 25.1376 17.4743 25.9997 16.4206 25.9997C15.3669 25.9997 14.5049 25.1376 14.5049 24.0839V8.75781C14.5049 7.70413 15.3669 6.84204 16.4206 6.84204ZM24.0837 17.7893C25.1373 17.7893 25.9994 18.6514 25.9994 19.705V24.0839C25.9994 25.1376 25.1373 25.9997 24.0837 25.9997C23.03 25.9997 22.1679 25.1376 22.1679 24.0839V19.705C22.1679 18.6514 23.03 17.7893 24.0837 17.7893V17.7893Z" fill="#FF82AC"/>
</g>
<defs>
<clipPath id="clip0_16_460">
<rect width="32.8417" height="32.8417" fill="white"/>
</clipPath>
</defs>
</svg>
