<svg width="15" height="15" viewBox="0 0 15 15" fill="currentColor" xmlns="http://www.w3.org/2000/svg">
<g clip-path="url(#clip0_16_489)">
<path d="M9.37505 2.40563C9.37701 2.52992 9.41528 2.65092 9.48512 2.75375C9.55497 2.85658 9.65336 2.93674 9.76817 2.98438C10.7946 3.43599 11.6625 4.18407 12.2607 5.13257C12.8588 6.08107 13.1598 7.18669 13.125 8.3075C13.1008 9.79935 12.485 11.2205 11.413 12.2583C10.341 13.296 8.90064 13.8655 7.4088 13.8413C5.91696 13.8171 4.49583 13.2012 3.45805 12.1292C2.42027 11.0572 1.85085 9.61685 1.87505 8.125C1.87649 7.03514 2.19451 5.96917 2.79046 5.05668C3.3864 4.14418 4.23459 3.42446 5.23192 2.985C5.34679 2.93708 5.44518 2.85668 5.51501 2.75365C5.58484 2.65062 5.62309 2.52945 5.62505 2.405C5.62521 2.30263 5.60022 2.20179 5.55229 2.11134C5.50435 2.02089 5.43493 1.9436 5.35012 1.88626C5.26532 1.82892 5.16773 1.79329 5.06593 1.7825C4.96413 1.77171 4.86124 1.78609 4.7663 1.82438C3.31585 2.45322 2.12644 3.56272 1.3984 4.966C0.670365 6.36928 0.448192 7.98059 0.769304 9.52854C1.09042 11.0765 1.93519 12.4665 3.16134 13.4644C4.38749 14.4622 5.92009 15.0071 7.50099 15.0071C9.08188 15.0071 10.6145 14.4622 11.8406 13.4644C13.0668 12.4665 13.9116 11.0765 14.2327 9.52854C14.5538 7.98059 14.3316 6.36928 13.6036 4.966C12.8755 3.56272 11.6861 2.45322 10.2357 1.82438C10.1406 1.78568 10.0374 1.77099 9.93533 1.78162C9.83323 1.79225 9.73531 1.82786 9.65024 1.88532C9.56517 1.94278 9.49556 2.0203 9.44756 2.11105C9.39956 2.2018 9.37466 2.30297 9.37505 2.40563Z" fill="currentColor"/>
<path d="M8.125 0.625C8.125 0.279822 7.84518 0 7.5 0C7.15482 0 6.875 0.279822 6.875 0.625V4.375C6.875 4.72018 7.15482 5 7.5 5C7.84518 5 8.125 4.72018 8.125 4.375V0.625Z" fill="currentColor"/>
</g>
<defs>
<clipPath id="clip0_16_489">
<rect width="15" height="15" fill="white"/>
</clipPath>
</defs>
</svg>
