<svg width="20" height="20" viewBox="0 0 20 20" fill="currentColor" xmlns="http://www.w3.org/2000/svg">
<path d="M11.1429 5.90153V12.3496C11.1429 12.6527 11.0224 12.9434 10.8081 13.1578C10.5938 13.3721 10.3031 13.4925 10 13.4925C9.6969 13.4925 9.40621 13.3721 9.19188 13.1578C8.97755 12.9434 8.85714 12.6527 8.85714 12.3496V5.90153L7.576 7.18383C7.3614 7.39828 7.0704 7.5187 6.76702 7.51859C6.46364 7.51849 6.17273 7.39786 5.95829 7.18326C5.74384 6.96866 5.62342 6.67766 5.62353 6.37428C5.62364 6.07089 5.74426 5.77997 5.95886 5.56552L9.192 2.33462C9.40632 2.12036 9.69696 2 10 2C10.303 2 10.5937 2.12036 10.808 2.33462L14.0411 5.56667C14.1473 5.67293 14.2315 5.79906 14.289 5.93787C14.3464 6.07667 14.376 6.22543 14.3759 6.37566C14.3758 6.52588 14.3462 6.67462 14.2887 6.81338C14.2311 6.95215 14.1468 7.07822 14.0406 7.18441C13.9343 7.29059 13.8082 7.37481 13.6694 7.43224C13.5306 7.48968 13.3818 7.51922 13.2316 7.51917C13.0814 7.51911 12.9326 7.48947 12.7939 7.43194C12.6551 7.3744 12.529 7.29009 12.4229 7.18383L11.1429 5.90153ZM3.14286 15.7143H16.8571C17.1602 15.7143 17.4509 15.8347 17.6653 16.049C17.8796 16.2633 18 16.554 18 16.8571C18 17.1602 17.8796 17.4509 17.6653 17.6653C17.4509 17.8796 17.1602 18 16.8571 18H3.14286C2.83975 18 2.54906 17.8796 2.33474 17.6653C2.12041 17.4509 2 17.1602 2 16.8571C2 16.554 2.12041 16.2633 2.33474 16.049C2.54906 15.8347 2.83975 15.7143 3.14286 15.7143Z" fill="currentColor"/>
</svg>
