<svg width="250" height="250" viewBox="0 0 250 250" fill="none" xmlns="http://www.w3.org/2000/svg">
<path d="M102.979 12.5976C90.9668 19.4824 66.6504 33.4961 48.9258 43.7012L16.6504 62.2558L16.6016 98.3887C16.6016 118.262 16.748 146.484 16.9434 161.133L17.2363 187.744L32.4219 196.484C40.7715 201.318 63.6719 214.502 83.252 225.83C102.881 237.158 120.312 247.217 122.07 248.193L125.244 249.951L165.771 226.514C188.086 213.623 212.402 199.561 219.873 195.215L233.398 187.305L233.301 124.805L233.154 62.3047L226.562 58.4473C200.928 43.457 126.562 0.683575 125.488 0.29295C125.098 0.195293 114.941 5.71287 102.979 12.5976ZM153.955 28.7597C169.336 37.5976 191.016 50.0976 202.148 56.543L222.412 68.2129L222.754 124.561C222.998 167.969 222.949 181.055 222.51 181.445C221.631 182.275 125.977 237.402 125.342 237.5C125 237.5 102.832 224.902 76.0742 209.473L27.3926 181.396L27.4902 124.805L27.5879 68.2129L54.1992 52.832C110.01 20.6055 124.756 12.207 125.391 12.4512C125.732 12.5976 138.574 19.9219 153.955 28.7597Z" fill="white"/>
<path d="M103.516 75.1953V102.051H76.9043H50.293V126.221V150.391H66.748H83.2031L117.432 124.658C136.23 110.547 151.66 98.9258 151.66 98.9258C151.709 98.8769 151.904 87.5 152.051 73.584L152.441 48.3398H127.979H103.516V75.1953Z" fill="white"/>
<path d="M165.772 102.588C166.064 103.027 182.422 115.332 200.928 129.004L205.322 132.275L205.664 129.736C205.811 128.32 205.957 121.533 206.006 114.6L206.055 102.051H185.742C171.338 102.051 165.576 102.197 165.772 102.588Z" fill="white"/>
<path d="M150.049 107.52C144.482 111.523 129.053 122.852 101.709 143.066C96.8262 146.68 92.7734 149.805 92.7734 150C92.7734 150.244 95.3125 150.391 98.3887 150.391H104.004V177.246V204.102H128.174H152.344V177.246V150.391H178.955H205.566V144.629V138.916L200.537 135.205C197.803 133.203 186.963 125.098 176.416 117.285C165.918 109.424 157.08 103.027 156.787 103.027C156.543 103.027 153.516 105.029 150.049 107.52ZM151.367 122.51C153.809 123.438 153.906 123.438 155.908 122.51C163.037 119.287 171.777 124.951 171.875 132.812C171.875 137.012 169.092 141.406 165.332 143.115C162.842 144.238 158.398 144.287 155.762 143.262C153.906 142.529 153.613 142.529 151.709 143.262C149.023 144.287 144.434 144.287 142.432 143.262C140.43 142.236 137.793 139.795 136.914 138.086C135.938 136.182 135.547 131.787 136.182 129.736C137.158 126.807 139.355 124.268 142.139 122.852C145.264 121.338 147.949 121.24 151.367 122.51Z" fill="white"/>
<path d="M143.652 125.83C138.721 128.223 137.744 134.766 141.748 138.672C143.75 140.625 146.289 141.309 149.121 140.576L151.27 140.039L150.342 137.842C149.121 135.01 149.121 130.762 150.342 128.076L151.27 126.025L149.805 125.537C147.656 124.805 145.508 124.902 143.652 125.83Z" fill="white"/>
<path d="M157.471 125.635C156.543 126.367 156.543 126.416 157.373 128.125C158.545 130.615 158.496 135.254 157.227 137.744L156.201 139.697L157.959 140.43C162.061 142.139 167.529 138.818 168.311 134.131C168.701 131.641 167.334 128.223 165.283 126.66C163.232 125.098 158.936 124.561 157.471 125.635Z" fill="white"/>
<path d="M153.125 129.98C152.734 131.494 152.832 135.303 153.271 136.475C153.662 137.402 153.662 137.402 154.199 136.377C154.834 135.254 154.98 131.006 154.492 129.688C154.053 128.564 153.467 128.711 153.125 129.98Z" fill="white"/>
</svg>
