<svg width="32" height="32" viewBox="0 0 32 32" fill="none" xmlns="http://www.w3.org/2000/svg">
<path d="M13.1812 1.61252C11.6437 2.49377 8.53125 4.28752 6.2625 5.59377L2.13125 7.96877L2.125 12.5938C2.125 15.1375 2.14375 18.75 2.16875 20.625L2.20625 24.0313L4.15 25.15C5.21875 25.7688 8.15 27.4563 10.6563 28.9063C13.1687 30.3563 15.4 31.6438 15.625 31.7688L16.0312 31.9938L21.2187 28.9938C24.075 27.3438 27.1875 25.5438 28.1438 24.9875L29.875 23.975L29.8625 15.975L29.8437 7.97502L29 7.48127C25.7188 5.56252 16.2 0.0875214 16.0625 0.0375214C16.0125 0.0250214 14.7125 0.731273 13.1812 1.61252ZM19.7062 3.68127C21.675 4.81252 24.45 6.41252 25.875 7.23752L28.4687 8.73127L28.5125 15.9438C28.5437 21.5 28.5375 23.175 28.4813 23.225C28.3688 23.3313 16.125 30.3875 16.0437 30.4C16 30.4 13.1625 28.7875 9.7375 26.8125L3.50625 23.2188L3.51875 15.975L3.53125 8.73127L6.9375 6.76252C14.0812 2.63752 15.9687 1.56252 16.05 1.59377C16.0937 1.61252 17.7375 2.55002 19.7062 3.68127Z" fill="#108A4A"/>
<path d="M13.25 9.625V13.0625H9.84375H6.4375V16.1562V19.25H8.54375H10.65L15.0313 15.9562C17.4375 14.15 19.4125 12.6625 19.4125 12.6625C19.4188 12.6562 19.4438 11.2 19.4625 9.41875L19.5125 6.1875H16.3813H13.25V9.625Z" fill="#108A4A"/>
<path d="M21.2188 13.1313C21.2563 13.1875 23.35 14.7625 25.7188 16.5125L26.2813 16.9313L26.325 16.6063C26.3438 16.425 26.3625 15.5563 26.3688 14.6688L26.375 13.0625H23.775C21.9313 13.0625 21.1938 13.0813 21.2188 13.1313Z" fill="#108A4A"/>
<path d="M19.2063 13.7625C18.4938 14.275 16.5188 15.725 13.0188 18.3125C12.3938 18.775 11.875 19.175 11.875 19.2C11.875 19.2312 12.2 19.25 12.5938 19.25H13.3125V22.6875V26.125H16.4063H19.5V22.6875V19.25H22.9063H26.3125V18.5125V17.7812L25.6688 17.3062C25.3188 17.05 23.9313 16.0125 22.5813 15.0125C21.2375 14.0062 20.1063 13.1875 20.0688 13.1875C20.0375 13.1875 19.65 13.4437 19.2063 13.7625ZM19.375 15.6812C19.6875 15.8 19.7 15.8 19.9563 15.6812C20.8688 15.2687 21.9875 15.9937 22 17C22 17.5375 21.6438 18.1 21.1625 18.3187C20.8438 18.4625 20.275 18.4687 19.9375 18.3375C19.7 18.2437 19.6625 18.2437 19.4188 18.3375C19.075 18.4687 18.4875 18.4687 18.2313 18.3375C17.975 18.2062 17.6375 17.8937 17.525 17.675C17.4 17.4312 17.35 16.8687 17.4313 16.6062C17.5563 16.2312 17.8375 15.9062 18.1938 15.725C18.5938 15.5312 18.9375 15.5187 19.375 15.6812Z" fill="#47B14B"/>
<path d="M18.3875 16.1063C17.7563 16.4126 17.6313 17.2501 18.1438 17.7501C18.4 18.0001 18.725 18.0876 19.0875 17.9938L19.3625 17.9251L19.2438 17.6438C19.0875 17.2813 19.0875 16.7376 19.2438 16.3938L19.3625 16.1313L19.175 16.0688C18.9 15.9751 18.625 15.9876 18.3875 16.1063Z" fill="#47B14B"/>
<path d="M20.1563 16.0813C20.0375 16.175 20.0375 16.1813 20.1438 16.4C20.2938 16.7188 20.2875 17.3125 20.125 17.6313L19.9938 17.8813L20.2188 17.975C20.7438 18.1938 21.4438 17.7688 21.5438 17.1688C21.5938 16.85 21.4188 16.4125 21.1563 16.2125C20.8938 16.0125 20.3438 15.9438 20.1563 16.0813Z" fill="#47B14B"/>
<path d="M19.6 16.6375C19.55 16.8312 19.5625 17.3187 19.6188 17.4687C19.6688 17.5875 19.6688 17.5875 19.7375 17.4562C19.8188 17.3125 19.8375 16.7687 19.775 16.6C19.7188 16.4562 19.6438 16.475 19.6 16.6375Z" fill="#47B14B"/>
</svg>
